<svg xmlns="http://www.w3.org/2000/svg" viewBox="0 0 100 100">
  <defs>
    <linearGradient id="popcornGrad" x1="0%" y1="0%" x2="0%" y2="100%">
      <stop offset="0%" style="stop-color:#FFE66D;stop-opacity:1" />
      <stop offset="100%" style="stop-color:#FF6B6B;stop-opacity:1" />
    </linearGradient>
    <linearGradient id="boxGrad" x1="0%" y1="0%" x2="0%" y2="100%">
      <stop offset="0%" style="stop-color:#FF6B6B;stop-opacity:1" />
      <stop offset="100%" style="stop-color:#EE5A6F;stop-opacity:1" />
    </linearGradient>
  </defs>
  
  <!-- Background circle -->
  <circle cx="50" cy="50" r="48" fill="#1a1a2e"/>
  
  <!-- Popcorn box -->
  <path d="M 30 50 L 25 85 L 75 85 L 70 50 Z" fill="url(#boxGrad)" stroke="#FFF" stroke-width="2"/>
  
  <!-- Stripes on box -->
  <path d="M 32 55 L 28 75" stroke="#FFF" stroke-width="1.5" opacity="0.5"/>
  <path d="M 50 50 L 50 85" stroke="#FFF" stroke-width="1.5" opacity="0.5"/>
  <path d="M 68 55 L 72 75" stroke="#FFF" stroke-width="1.5" opacity="0.5"/>
  
  <!-- Popcorn pieces -->
  <circle cx="35" cy="30" r="7" fill="url(#popcornGrad)"/>
  <circle cx="32" cy="38" r="6" fill="#FFE66D"/>
  <circle cx="42" cy="35" r="5" fill="#FFF4A3"/>
  
  <circle cx="50" cy="25" r="8" fill="url(#popcornGrad)"/>
  <circle cx="48" cy="35" r="6" fill="#FFE66D"/>
  <circle cx="55" cy="32" r="7" fill="#FFF4A3"/>
  
  <circle cx="65" cy="30" r="7" fill="url(#popcornGrad)"/>
  <circle cx="68" cy="38" r="6" fill="#FFE66D"/>
  <circle cx="60" cy="36" r="5" fill="#FFF4A3"/>
  
  <!-- Extra popcorn on top -->
  <circle cx="50" cy="18" r="6" fill="#FFE66D"/>
  <circle cx="40" cy="22" r="5" fill="#FFF4A3"/>
  <circle cx="60" cy="22" r="5" fill="#FFF4A3"/>
</svg>
